<svg version="1.1" id="Layer_1" xmlns="http://www.w3.org/2000/svg" xmlns:xlink="http://www.w3.org/1999/xlink" x="0px" y="0px"
	 width="100%" viewBox="0 0 738 161" enable-background="new 0 0 738 161" xml:space="preserve">
<path fill="#FEFEFE" opacity="1.000000" stroke="none" 
	d="
M494.000000,162.000000 
	C329.378937,162.000000 165.257904,162.000000 1.068427,162.000000 
	C1.068427,108.393936 1.068427,54.787766 1.068427,1.090796 
	C246.999985,1.090796 493.000000,1.090796 738.965759,1.090796 
	C738.965759,54.742138 738.965759,108.371086 738.965759,162.000000 
	C657.454346,162.000000 575.977173,162.000000 494.000000,162.000000 
M82.763672,79.417076 
	C94.522476,73.351707 100.184746,63.862251 98.975075,50.523972 
	C97.797409,37.538441 90.867836,28.910509 78.740349,24.584051 
	C74.385231,23.030369 69.747292,21.555031 65.192551,21.401045 
	C47.056099,20.787886 28.901600,20.706364 10.753418,20.454485 
	C10.292804,20.448092 9.827938,20.747953 9.125317,20.986319 
	C9.125317,63.199890 9.125317,105.431366 9.125317,147.854721 
	C9.912387,148.007248 10.536620,148.233597 11.160935,148.233826 
	C27.490194,148.239716 43.828049,148.542587 60.145966,148.105392 
	C72.772919,147.767090 84.557518,144.347168 93.629387,134.780899 
	C110.388374,117.108582 104.136459,91.198906 81.310265,83.384560 
	C80.315239,83.043915 79.387886,82.505569 77.938744,81.831154 
	C79.721642,80.948593 80.901505,80.364540 82.763672,79.417076 
M198.953522,143.423630 
	C208.138611,139.844467 216.058640,134.441666 222.301498,126.783585 
	C234.616882,111.676338 238.368027,94.193977 236.193054,75.181244 
	C232.808319,45.593475 211.601303,23.725288 182.050308,21.349949 
	C163.339294,19.845936 144.439346,20.688200 125.623802,20.513317 
	C125.202080,20.509398 124.776428,20.927538 124.491104,21.076498 
	C124.491104,63.476891 124.491104,105.720764 124.491104,148.267090 
	C140.495026,148.267090 156.170609,148.780365 171.790253,148.067703 
	C180.656265,147.663177 189.430679,145.250717 198.953522,143.423630 
M341.200043,52.010586 
	C346.699829,50.221596 350.586426,47.007309 350.945282,40.782871 
	C351.268433,35.178062 347.925323,32.306679 342.751251,30.617153 
	C347.907990,28.111288 350.700317,24.568958 349.595734,18.909563 
	C348.621216,13.916438 345.234894,10.844340 338.752319,10.336545 
	C332.534698,9.849506 326.248993,10.231350 320.207275,10.231350 
	C320.207275,24.588848 320.207275,38.496078 320.207275,53.054741 
	C327.175140,52.736866 333.780365,52.435532 341.200043,52.010586 
M316.911804,123.500351 
	C316.911804,131.241287 316.911804,138.982224 316.911804,146.970108 
	C323.139252,146.970108 328.789886,147.306351 334.386505,146.899689 
	C345.825195,146.068542 353.338745,138.475113 354.097900,127.516808 
	C354.926422,115.557350 348.995087,106.959496 337.296082,104.817741 
	C330.742035,103.617874 323.889832,104.046524 316.911804,103.729591 
	C316.911804,110.574646 316.911804,116.537605 316.911804,123.500351 
M635.687378,119.504990 
	C635.687378,114.403259 635.687378,109.301529 635.687378,104.247086 
	C632.793274,104.247086 630.534241,104.247086 627.797485,104.247086 
	C627.797485,110.568146 627.797485,116.626183 627.797485,122.684631 
	C620.903931,122.684631 614.498840,122.684631 607.656616,122.684631 
	C607.656616,116.326324 607.656616,110.247604 607.656616,104.295761 
	C604.949768,104.295761 602.703979,104.295761 600.470459,104.295761 
	C600.470459,118.674583 600.470459,132.729172 600.470459,146.723877 
	C603.030518,146.723877 605.280579,146.723877 608.006592,146.723877 
	C608.006592,140.381012 608.006592,134.329239 608.006592,128.368851 
	C614.898621,128.368851 621.292358,128.368851 628.151611,128.368851 
	C628.151611,134.758133 628.151611,140.824249 628.151611,146.703094 
	C630.884766,146.703094 633.133850,146.703094 635.687317,146.703094 
	C635.687317,137.755646 635.687317,129.129288 635.687378,119.504990 
M710.821106,35.298943 
	C714.260132,39.776760 718.038879,44.040070 721.040894,48.793858 
	C723.934998,53.376659 727.591797,53.225067 732.561768,52.243271 
	C726.768494,44.435654 721.363464,37.151302 715.912903,29.805584 
	C720.950867,23.456646 726.038025,17.045696 731.234436,10.497001 
	C725.202087,8.756784 721.492493,10.808934 718.538513,15.420280 
	C716.218567,19.041950 713.442139,22.413151 710.547852,25.604925 
	C709.344177,26.932251 707.307251,27.503954 704.725830,28.929012 
	C704.725830,21.771742 704.725830,16.019781 704.725830,10.246084 
	C702.036438,10.246084 699.790833,10.246084 697.572876,10.246084 
	C697.572876,24.535627 697.572876,38.547649 697.572876,52.360390 
	C700.207092,52.360390 702.425903,52.360390 705.036621,52.360390 
	C705.036621,46.009861 705.036621,40.088734 705.036621,33.723026 
	C707.080139,34.132771 708.656555,34.448856 710.821106,35.298943 
M425.248108,104.163773 
	C419.610748,118.261780 413.973419,132.359787 408.121246,146.994965 
	C412.200623,146.755630 416.380676,148.499680 417.189270,143.660828 
	C418.355804,136.680023 422.629974,135.467804 428.575073,136.287323 
	C429.882294,136.467545 431.259003,136.474121 432.563141,136.283203 
	C436.254150,135.742920 438.178253,136.999893 439.361084,140.811844 
	C441.503510,147.716400 441.826447,147.637863 449.152557,146.493530 
	C444.460754,134.360397 439.579590,122.353935 435.222656,110.160156 
	C433.534943,105.436661 431.315125,102.799454 425.248108,104.163773 
M514.360840,22.814816 
	C510.581482,32.628098 506.802124,42.441380 503.034027,52.225338 
	C513.095398,55.312214 511.788116,46.331608 514.833557,42.020351 
	C518.894409,42.020351 522.916443,42.376675 526.845520,41.924950 
	C531.192993,41.425129 533.325562,43.199131 534.056702,47.196438 
	C535.038025,52.561615 538.331177,53.762024 543.472961,52.294998 
	C543.068542,51.038750 542.737549,49.801289 542.277344,48.613918 
	C537.897888,37.314735 533.462891,26.036947 529.126526,14.721337 
	C528.110962,12.071240 527.572449,9.823356 523.622375,9.777879 
	C519.629272,9.731905 518.508240,11.635459 517.536438,14.672819 
	C516.728149,17.199333 515.655884,19.641394 514.360840,22.814816 
M520.149414,140.772369 
	C517.522278,139.480392 514.895142,138.188400 511.956390,136.743164 
	C510.805908,138.624863 509.819489,140.238297 508.063995,143.109558 
	C513.297058,144.845718 517.639893,147.035660 522.189087,147.620438 
	C529.029663,148.499741 535.341125,143.508163 536.737305,137.266296 
	C538.341125,130.096237 535.871155,125.886536 528.153198,122.715172 
	C526.622620,122.086243 525.050232,121.555756 523.484863,121.015472 
	C519.992126,119.809990 516.693115,118.374313 518.042175,113.695366 
	C518.965027,110.494499 523.292114,109.081879 527.362854,110.559814 
	C529.339966,111.277618 531.228149,112.240463 533.473999,113.232613 
	C534.556885,111.294640 535.466064,109.667458 536.874451,107.146843 
	C532.559143,105.690994 529.101746,103.980209 525.466309,103.415291 
	C518.611572,102.350143 512.088806,107.011345 510.739502,113.285316 
	C509.278442,120.078644 512.475403,125.017815 519.916565,127.537689 
	C522.269043,128.334305 524.830688,128.863922 526.841125,130.200699 
	C528.268433,131.149734 529.799072,133.298645 529.710205,134.820114 
	C529.605408,136.613266 528.165161,138.830383 526.631348,139.892517 
	C525.188232,140.891891 522.869934,140.627563 520.149414,140.772369 
M609.415894,25.480711 
	C612.809692,16.769506 620.367554,13.117041 627.979370,17.439293 
	C632.665222,20.100039 633.974243,18.257996 635.374390,14.586750 
	C626.254944,6.632033 613.125427,7.481138 605.852844,16.291866 
	C598.105225,25.678167 599.572205,42.088730 608.614990,49.292854 
	C616.526245,55.595539 632.128845,54.238811 635.848328,46.677765 
	C634.171509,42.914280 632.207092,42.614723 628.592163,44.952732 
	C621.827148,49.328156 612.692017,46.160732 610.218323,38.508553 
	C608.993652,34.720173 609.479553,30.378805 609.415894,25.480711 
M418.387421,49.124207 
	C419.247955,50.349819 420.067352,52.602200 420.975525,52.638588 
	C428.234528,52.929508 435.510376,52.801048 442.933105,52.801048 
	C442.933105,50.284916 442.933105,48.352379 442.933105,45.792191 
	C437.243073,45.792191 431.705383,45.792191 425.898712,45.792191 
	C425.898712,33.571793 425.898712,21.977585 425.898712,10.178295 
	C423.350555,10.178295 421.100769,10.178295 418.387299,10.178295 
	C418.387299,22.979910 418.387299,35.588802 418.387421,49.124207 
M270.815460,33.500053 
	C270.815460,25.702494 270.815460,17.904932 270.815460,10.107371 
	C270.203827,10.131322 269.592224,10.155272 268.980591,10.179222 
	C268.980591,58.062000 268.980591,105.944778 268.980591,153.827560 
	C269.592163,153.831100 270.203735,153.834625 270.815308,153.838165 
	C270.815308,114.058784 270.815308,74.279411 270.815460,33.500053 
z"/>
<path fill="#1C1C1C" opacity="1.000000" stroke="none" 
	d="
M82.422516,79.598785 
	C80.901505,80.364540 79.721642,80.948593 77.938744,81.831154 
	C79.387886,82.505569 80.315239,83.043915 81.310265,83.384560 
	C104.136459,91.198906 110.388374,117.108582 93.629387,134.780899 
	C84.557518,144.347168 72.772919,147.767090 60.145966,148.105392 
	C43.828049,148.542587 27.490194,148.239716 11.160935,148.233826 
	C10.536620,148.233597 9.912387,148.007248 9.125317,147.854721 
	C9.125317,105.431366 9.125317,63.199890 9.125317,20.986319 
	C9.827938,20.747953 10.292804,20.448092 10.753418,20.454485 
	C28.901600,20.706364 47.056099,20.787886 65.192551,21.401045 
	C69.747292,21.555031 74.385231,23.030369 78.740349,24.584051 
	C90.867836,28.910509 97.797409,37.538441 98.975075,50.523972 
	C100.184746,63.862251 94.522476,73.351707 82.422516,79.598785 
M45.507450,129.269165 
	C53.397594,128.548721 61.537239,128.793854 69.108063,126.837608 
	C76.753677,124.862038 80.224785,117.498306 79.692680,108.987419 
	C79.184258,100.855408 75.231186,94.839966 67.120636,93.765198 
	C55.707848,92.252831 44.078758,92.372726 32.379814,91.786499 
	C32.379814,104.941910 32.379814,116.848801 32.379814,129.269180 
	C36.597298,129.269180 40.554127,129.269180 45.507450,129.269165 
M54.351040,75.311249 
	C58.082710,74.601028 61.983906,74.359612 65.511177,73.084129 
	C73.130280,70.329025 76.284988,64.426903 75.806496,55.139103 
	C75.369751,46.661579 71.632851,40.893066 63.605263,39.775459 
	C53.365402,38.349854 42.913368,38.448280 32.356945,37.879246 
	C32.356945,50.964252 32.356945,62.852650 32.356945,75.324036 
	C39.528004,75.324036 46.457512,75.324036 54.351040,75.311249 
z"/>
<path fill="#1D1D1D" opacity="1.000000" stroke="none" 
	d="
M198.599930,143.583069 
	C189.430679,145.250717 180.656265,147.663177 171.790253,148.067703 
	C156.170609,148.780365 140.495026,148.267090 124.491104,148.267090 
	C124.491104,105.720764 124.491104,63.476891 124.491104,21.076498 
	C124.776428,20.927538 125.202080,20.509398 125.623802,20.513317 
	C144.439346,20.688200 163.339294,19.845936 182.050308,21.349949 
	C211.601303,23.725288 232.808319,45.593475 236.193054,75.181244 
	C238.368027,94.193977 234.616882,111.676338 222.301498,126.783585 
	C216.058640,134.441666 208.138611,139.844467 198.599930,143.583069 
M147.742020,97.499931 
	C147.742020,107.927582 147.742020,118.355225 147.742020,129.246719 
	C157.256790,129.246719 166.209915,129.339035 175.160461,129.226273 
	C190.747086,129.029922 203.599304,120.318779 209.073563,105.726761 
	C214.484314,91.303993 214.390671,76.670448 208.796555,62.289234 
	C204.984329,52.488804 198.005020,45.530468 188.040207,41.960567 
	C174.964783,37.276283 161.475952,40.190731 147.741974,39.297153 
	C147.741974,58.940990 147.741974,77.720459 147.742020,97.499931 
z"/>
<path fill="#222222" opacity="1.000000" stroke="none" 
	d="
M340.792786,52.072395 
	C333.780365,52.435532 327.175140,52.736866 320.207275,53.054741 
	C320.207275,38.496078 320.207275,24.588848 320.207275,10.231350 
	C326.248993,10.231350 332.534698,9.849506 338.752319,10.336545 
	C345.234894,10.844340 348.621216,13.916438 349.595734,18.909563 
	C350.700317,24.568958 347.907990,28.111288 342.751251,30.617153 
	C347.925323,32.306679 351.268433,35.178062 350.945282,40.782871 
	C350.586426,47.007309 346.699829,50.221596 340.792786,52.072395 
M338.520721,46.421589 
	C342.624847,45.204483 343.931000,42.251263 343.148499,38.357594 
	C342.350342,34.386059 339.111023,34.035412 335.827911,34.010674 
	C333.112000,33.990208 330.395782,34.006493 327.951843,34.006493 
	C327.951843,38.657822 327.951843,42.538479 327.951843,46.622833 
	C331.461212,46.622833 334.575409,46.622833 338.520721,46.421589 
M342.110596,22.415771 
	C341.063354,16.017792 338.102325,14.794744 327.829803,16.526051 
	C327.829803,20.429514 327.829803,24.332979 327.829803,28.186033 
	C337.003937,29.693052 339.992584,28.621025 342.110596,22.415771 
z"/>
<path fill="#222222" opacity="1.000000" stroke="none" 
	d="
M316.911804,123.000458 
	C316.911804,116.537605 316.911804,110.574646 316.911804,103.729591 
	C323.889832,104.046524 330.742035,103.617874 337.296082,104.817741 
	C348.995087,106.959496 354.926422,115.557350 354.097900,127.516808 
	C353.338745,138.475113 345.825195,146.068542 334.386505,146.899689 
	C328.789886,147.306351 323.139252,146.970108 316.911804,146.970108 
	C316.911804,138.982224 316.911804,131.241287 316.911804,123.000458 
M324.634308,128.494873 
	C324.634308,132.570374 324.634308,136.645874 324.634308,140.910034 
	C332.313507,140.912155 339.998199,142.529541 344.184631,134.579666 
	C347.578156,128.135361 347.610229,121.255600 343.405212,115.178108 
	C338.769623,108.478348 331.588928,109.955086 324.634277,110.262611 
	C324.634277,116.226349 324.634277,121.861137 324.634308,128.494873 
z"/>
<path fill="#252525" opacity="1.000000" stroke="none" 
	d="
M635.687378,120.003952 
	C635.687317,129.129288 635.687317,137.755646 635.687317,146.703094 
	C633.133850,146.703094 630.884766,146.703094 628.151611,146.703094 
	C628.151611,140.824249 628.151611,134.758133 628.151611,128.368851 
	C621.292358,128.368851 614.898621,128.368851 608.006592,128.368851 
	C608.006592,134.329239 608.006592,140.381012 608.006592,146.723877 
	C605.280579,146.723877 603.030518,146.723877 600.470459,146.723877 
	C600.470459,132.729172 600.470459,118.674583 600.470459,104.295761 
	C602.703979,104.295761 604.949768,104.295761 607.656616,104.295761 
	C607.656616,110.247604 607.656616,116.326324 607.656616,122.684631 
	C614.498840,122.684631 620.903931,122.684631 627.797485,122.684631 
	C627.797485,116.626183 627.797485,110.568146 627.797485,104.247086 
	C630.534241,104.247086 632.793274,104.247086 635.687378,104.247086 
	C635.687378,109.301529 635.687378,114.403259 635.687378,120.003952 
z"/>
<path fill="#252525" opacity="1.000000" stroke="none" 
	d="
M710.527039,35.031944 
	C708.656555,34.448856 707.080139,34.132771 705.036621,33.723026 
	C705.036621,40.088734 705.036621,46.009861 705.036621,52.360390 
	C702.425903,52.360390 700.207092,52.360390 697.572876,52.360390 
	C697.572876,38.547649 697.572876,24.535627 697.572876,10.246084 
	C699.790833,10.246084 702.036438,10.246084 704.725830,10.246084 
	C704.725830,16.019781 704.725830,21.771742 704.725830,28.929012 
	C707.307251,27.503954 709.344177,26.932251 710.547852,25.604925 
	C713.442139,22.413151 716.218567,19.041950 718.538513,15.420280 
	C721.492493,10.808934 725.202087,8.756784 731.234436,10.497001 
	C726.038025,17.045696 720.950867,23.456646 715.912903,29.805584 
	C721.363464,37.151302 726.768494,44.435654 732.561768,52.243271 
	C727.591797,53.225067 723.934998,53.376659 721.040894,48.793858 
	C718.038879,44.040070 714.260132,39.776760 710.527039,35.031944 
z"/>
<path fill="#212121" opacity="1.000000" stroke="none" 
	d="
M425.654602,104.080719 
	C431.315125,102.799454 433.534943,105.436661 435.222656,110.160156 
	C439.579590,122.353935 444.460754,134.360397 449.152557,146.493530 
	C441.826447,147.637863 441.503510,147.716400 439.361084,140.811844 
	C438.178253,136.999893 436.254150,135.742920 432.563141,136.283203 
	C431.259003,136.474121 429.882294,136.467545 428.575073,136.287323 
	C422.629974,135.467804 418.355804,136.680023 417.189270,143.660828 
	C416.380676,148.499680 412.200623,146.755630 408.121246,146.994965 
	C413.973419,132.359787 419.610748,118.261780 425.654602,104.080719 
M422.976135,128.452881 
	C423.357117,129.303360 423.698944,130.868591 424.125214,130.891937 
	C427.723724,131.089020 431.337677,131.004349 435.647308,131.004349 
	C433.348633,124.637558 431.242981,118.805298 428.777832,111.977409 
	C426.614655,118.043854 424.895142,122.866096 422.976135,128.452881 
z"/>
<path fill="#222222" opacity="1.000000" stroke="none" 
	d="
M514.530640,22.467838 
	C515.655884,19.641394 516.728149,17.199333 517.536438,14.672819 
	C518.508240,11.635459 519.629272,9.731905 523.622375,9.777879 
	C527.572449,9.823356 528.110962,12.071240 529.126526,14.721337 
	C533.462891,26.036947 537.897888,37.314735 542.277344,48.613918 
	C542.737549,49.801289 543.068542,51.038750 543.472961,52.294998 
	C538.331177,53.762024 535.038025,52.561615 534.056702,47.196438 
	C533.325562,43.199131 531.192993,41.425129 526.845520,41.924950 
	C522.916443,42.376675 518.894409,42.020351 514.833557,42.020351 
	C511.788116,46.331608 513.095398,55.312214 503.034027,52.225338 
	C506.802124,42.441380 510.581482,32.628098 514.530640,22.467838 
M524.363892,37.003448 
	C526.138611,37.003448 527.913330,37.003448 530.225281,37.003448 
	C527.924133,30.510765 525.803345,24.526978 523.369507,17.659922 
	C520.931763,24.489115 518.791870,30.483797 516.464539,37.003468 
	C519.210266,37.003468 521.328308,37.003468 524.363892,37.003448 
z"/>
<path fill="#222222" opacity="1.000000" stroke="none" 
	d="
M520.543091,140.845795 
	C522.869934,140.627563 525.188232,140.891891 526.631348,139.892517 
	C528.165161,138.830383 529.605408,136.613266 529.710205,134.820114 
	C529.799072,133.298645 528.268433,131.149734 526.841125,130.200699 
	C524.830688,128.863922 522.269043,128.334305 519.916565,127.537689 
	C512.475403,125.017815 509.278442,120.078644 510.739502,113.285316 
	C512.088806,107.011345 518.611572,102.350143 525.466309,103.415291 
	C529.101746,103.980209 532.559143,105.690994 536.874451,107.146843 
	C535.466064,109.667458 534.556885,111.294640 533.473999,113.232613 
	C531.228149,112.240463 529.339966,111.277618 527.362854,110.559814 
	C523.292114,109.081879 518.965027,110.494499 518.042175,113.695366 
	C516.693115,118.374313 519.992126,119.809990 523.484863,121.015472 
	C525.050232,121.555756 526.622620,122.086243 528.153198,122.715172 
	C535.871155,125.886536 538.341125,130.096237 536.737305,137.266296 
	C535.341125,143.508163 529.029663,148.499741 522.189087,147.620438 
	C517.639893,147.035660 513.297058,144.845718 508.063995,143.109558 
	C509.819489,140.238297 510.805908,138.624863 511.956390,136.743164 
	C514.895142,138.188400 517.522278,139.480392 520.543091,140.845795 
z"/>
<path fill="#212121" opacity="1.000000" stroke="none" 
	d="
M609.303711,25.884171 
	C609.479553,30.378805 608.993652,34.720173 610.218323,38.508553 
	C612.692017,46.160732 621.827148,49.328156 628.592163,44.952732 
	C632.207092,42.614723 634.171509,42.914280 635.848328,46.677765 
	C632.128845,54.238811 616.526245,55.595539 608.614990,49.292854 
	C599.572205,42.088730 598.105225,25.678167 605.852844,16.291866 
	C613.125427,7.481138 626.254944,6.632033 635.374390,14.586750 
	C633.974243,18.257996 632.665222,20.100039 627.979370,17.439293 
	C620.367554,13.117041 612.809692,16.769506 609.303711,25.884171 
z"/>
<path fill="#282828" opacity="1.000000" stroke="none" 
	d="
M418.387360,48.660950 
	C418.387299,35.588802 418.387299,22.979910 418.387299,10.178295 
	C421.100769,10.178295 423.350555,10.178295 425.898712,10.178295 
	C425.898712,21.977585 425.898712,33.571793 425.898712,45.792191 
	C431.705383,45.792191 437.243073,45.792191 442.933105,45.792191 
	C442.933105,48.352379 442.933105,50.284916 442.933105,52.801048 
	C435.510376,52.801048 428.234528,52.929508 420.975525,52.638588 
	C420.067352,52.602200 419.247955,50.349819 418.387360,48.660950 
z"/>
<path fill="#676767" opacity="1.000000" stroke="none" 
	d="
M270.815369,34.000042 
	C270.815308,74.279411 270.815308,114.058784 270.815308,153.838165 
	C270.203735,153.834625 269.592163,153.831100 268.980591,153.827560 
	C268.980591,105.944778 268.980591,58.062000 268.980591,10.179222 
	C269.592224,10.155272 270.203827,10.131322 270.815460,10.107371 
	C270.815460,17.904932 270.815460,25.702494 270.815369,34.000042 
z"/>
<path fill="#FAFAFA" opacity="1.000000" stroke="none" 
	d="
M45.009205,129.269165 
	C40.554127,129.269180 36.597298,129.269180 32.379814,129.269180 
	C32.379814,116.848801 32.379814,104.941910 32.379814,91.786499 
	C44.078758,92.372726 55.707848,92.252831 67.120636,93.765198 
	C75.231186,94.839966 79.184258,100.855408 79.692680,108.987419 
	C80.224785,117.498306 76.753677,124.862038 69.108063,126.837608 
	C61.537239,128.793854 53.397594,128.548721 45.009205,129.269165 
z"/>
<path fill="#F9F9F9" opacity="1.000000" stroke="none" 
	d="
M53.869030,75.317642 
	C46.457512,75.324036 39.528004,75.324036 32.356945,75.324036 
	C32.356945,62.852650 32.356945,50.964252 32.356945,37.879246 
	C42.913368,38.448280 53.365402,38.349854 63.605263,39.775459 
	C71.632851,40.893066 75.369751,46.661579 75.806496,55.139103 
	C76.284988,64.426903 73.130280,70.329025 65.511177,73.084129 
	C61.983906,74.359612 58.082710,74.601028 53.869030,75.317642 
z"/>
<path fill="#FCFCFC" opacity="1.000000" stroke="none" 
	d="
M147.742004,96.999924 
	C147.741974,77.720459 147.741974,58.940990 147.741974,39.297153 
	C161.475952,40.190731 174.964783,37.276283 188.040207,41.960567 
	C198.005020,45.530468 204.984329,52.488804 208.796555,62.289234 
	C214.390671,76.670448 214.484314,91.303993 209.073563,105.726761 
	C203.599304,120.318779 190.747086,129.029922 175.160461,129.226273 
	C166.209915,129.339035 157.256790,129.246719 147.742020,129.246719 
	C147.742020,118.355225 147.742020,107.927582 147.742004,96.999924 
z"/>
<path fill="#F7F7F7" opacity="1.000000" stroke="none" 
	d="
M338.105164,46.522209 
	C334.575409,46.622833 331.461212,46.622833 327.951843,46.622833 
	C327.951843,42.538479 327.951843,38.657822 327.951843,34.006493 
	C330.395782,34.006493 333.112000,33.990208 335.827911,34.010674 
	C339.111023,34.035412 342.350342,34.386059 343.148499,38.357594 
	C343.931000,42.251263 342.624847,45.204483 338.105164,46.522209 
z"/>
<path fill="#F6F6F6" opacity="1.000000" stroke="none" 
	d="
M342.084442,22.821955 
	C339.992584,28.621025 337.003937,29.693052 327.829803,28.186033 
	C327.829803,24.332979 327.829803,20.429514 327.832947,16.522881 
	C338.102325,14.794744 341.063354,16.017792 342.084442,22.821955 
z"/>
<path fill="#FDFDFD" opacity="1.000000" stroke="none" 
	d="
M324.634277,127.995399 
	C324.634277,121.861137 324.634277,116.226349 324.634277,110.262611 
	C331.588928,109.955086 338.769623,108.478348 343.405212,115.178108 
	C347.610229,121.255600 347.578156,128.135361 344.184631,134.579666 
	C339.998199,142.529541 332.313507,140.912155 324.634308,140.910034 
	C324.634308,136.645874 324.634308,132.570374 324.634277,127.995399 
z"/>
<path fill="#F3F3F3" opacity="1.000000" stroke="none" 
	d="
M423.075867,128.070618 
	C424.895142,122.866096 426.614655,118.043854 428.777832,111.977409 
	C431.242981,118.805298 433.348633,124.637558 435.647308,131.004349 
	C431.337677,131.004349 427.723724,131.089020 424.125214,130.891937 
	C423.698944,130.868591 423.357117,129.303360 423.075867,128.070618 
z"/>
<path fill="#F3F3F3" opacity="1.000000" stroke="none" 
	d="
M523.905151,37.003456 
	C521.328308,37.003468 519.210266,37.003468 516.464539,37.003468 
	C518.791870,30.483797 520.931763,24.489115 523.369507,17.659922 
	C525.803345,24.526978 527.924133,30.510765 530.225281,37.003448 
	C527.913330,37.003448 526.138611,37.003448 523.905151,37.003456 
z"/>
</svg>