<?xml version="1.0" ?><!-- Uploaded to: SVG Repo, www.svgrepo.com, Generator: SVG Repo Mixer Tools -->
<svg fill="#000000" width="800px" height="800px" viewBox="0 0 24 24" id="Layer_2" version="1.1" xml:space="preserve" xmlns="http://www.w3.org/2000/svg" xmlns:xlink="http://www.w3.org/1999/xlink"><path d="M13.468,6.06c0.195-0.195,0.195-0.512,0-0.707c-0.796-0.795-2.091-0.796-2.889,0c-0.195,0.195-0.195,0.512,0,0.707  c0.098,0.098,0.226,0.146,0.354,0.146s0.256-0.049,0.354-0.146c0.407-0.408,1.069-0.405,1.475,0  C12.956,6.255,13.272,6.255,13.468,6.06z"/><path d="M14.437,4.826c0.195-0.195,0.195-0.512,0-0.707C13.787,3.469,12.921,3.111,12,3.111c-0.922,0-1.787,0.358-2.437,1.008  c-0.195,0.195-0.195,0.512,0,0.707c0.098,0.098,0.226,0.146,0.354,0.146s0.256-0.049,0.354-0.146  C10.731,4.365,11.346,4.111,12,4.111s1.269,0.254,1.729,0.715C13.925,5.021,14.241,5.021,14.437,4.826z"/><circle cx="12.023" cy="6.889" r="0.5"/><path d="M6.713,10.809v4.904C6.713,18.628,9.085,21,12,21s5.287-2.372,5.287-5.287v-4.904c0-1.311-1.066-2.378-2.378-2.378H9.091  C7.779,8.431,6.713,9.498,6.713,10.809z M16.287,10.809v4.904C16.287,18.077,14.364,20,12,20s-4.287-1.923-4.287-4.287v-4.904  c0-0.76,0.618-1.378,1.378-1.378h5.818C15.669,9.431,16.287,10.049,16.287,10.809z"/><path d="M10.418,11.781h3.164c0.276,0,0.5-0.224,0.5-0.5s-0.224-0.5-0.5-0.5h-3.164c-0.276,0-0.5,0.224-0.5,0.5  S10.142,11.781,10.418,11.781z"/></svg>